<svg width="70" height="41" viewBox="0 0 70 41" fill="none" xmlns="http://www.w3.org/2000/svg">
<path d="M29.6587 0.177734C31.5594 3.4642 35.3608 10.3188 35.3608 11.4456C36.7864 8.15915 39.9225 1.30452 41.0629 0.177734" stroke="#005A63" stroke-width="0.5"/>
<path d="M32.5097 21.8666C28.7082 15.7632 17.1139 4.11971 1.14795 6.37328C5.42454 10.1295 12.5522 19.0503 11.1267 26.0927C10.1763 30.3182 9.70114 40.1776 19.6799 40.1776C22.5309 40.1776 28.4231 38.7691 31.0841 33.1352C34.4104 26.0927 43.4387 14.8253 46.765 12.0079C50.0912 9.19047 59.0245 4.11918 68.1479 6.37328C64.8217 9.19006 58.4543 17.0772 59.5948 26.0915C60.0699 30.7865 58.7394 40.1764 49.616 40.1764C46.765 40.1764 40.4926 38.4862 38.2118 31.7254" stroke="#005A63"/>
</svg>
